<svg xmlns="http://www.w3.org/2000/svg" xmlns:xlink="http://www.w3.org/1999/xlink" version="1.1" x="0px" y="0px" viewBox="0 0 100 125" style="enable-background:new 0 0 100 100;" xml:space="preserve"><path d="M53.7,85.9c-2.5,0-5.3-0.8-7,0.2c-1.7,1-2.3,3.8-3.2,5.8c-1.6,3.4-1.6,3.4-5.2,2.4c-2.1-0.6-4.2-1.2-6.2-1.8  c-1.5-0.4-2.1-1.2-1.7-2.8c0.7-2.6,1.2-5.2,1.8-8.1c-1.7-1.1-3.4-2.4-5.3-3.5c-0.4-0.3-1.4,0-1.9,0.3c-2,1.1-4,2.3-6,3.6  c-1.1,0.7-1.9,0.6-2.7-0.4c-1.8-2.4-3.7-4.7-5.4-7.2c-0.3-0.4,0-1.7,0.5-2.2c1.8-2,3.9-3.7,5.7-5.7c0.5-0.5,0.5-1.5,0.5-2.2  c0-0.6-0.5-1.1-0.6-1.7c-0.3-4.4-3.1-5.2-6.9-5.5c-6.1-0.5-4.7,0.1-4.9-5.5c-0.1-1.8,0-3.6-0.1-5.4c-0.1-1.6,0.6-2.3,2.2-2.5  c2.2-0.3,4.5-0.5,6.6-1c0.7-0.1,1.5-0.9,1.7-1.5c0.8-2.2,1.4-4.6,1.8-5.9c-2.2-2.6-4.1-4.9-6.1-7.1c-1-1.1-1.2-1.8-0.2-3.1  c1.7-2,3.2-4.2,4.7-6.3c0.9-1.2,1.8-1.4,3-0.6c2,1.2,4,2.4,6,3.5c0.6,0.3,1.7,0.2,2.3-0.1c1.6-1,3.9-1.9,4.5-3.4  c0.6-1.4-0.6-3.6-1-5.4c-0.2-0.7-0.3-1.5-0.4-2.2c-0.4-1.5,0.3-2.3,1.6-2.8c2.8-0.9,5.5-1.8,8.3-2.7c1.4-0.5,2.3,0,2.8,1.3  c0.8,1.9,1.8,3.8,2.5,5.8c0.5,1.2,1.1,1.6,2.4,1.5c1.9-0.1,4.3,0.5,5.7-0.4c1.3-0.8,1.6-3.2,2.3-5c0.3-0.8,0.5-1.7,1.1-2.2  c0.5-0.5,1.6-1.1,2.2-0.9c3,0.8,6,1.8,8.9,3c0.6,0.2,1.2,1.5,1.1,2.2c-0.2,2.2-0.7,4.3-1.2,6.4c-0.3,1.2,0,2,1.1,2.6  c1.5,0.9,3,2,4.6,3.1c2.3-1.4,4.6-2.8,6.8-4.3c1.3-0.8,2.2-0.7,3.1,0.5c1.8,2.3,3.6,4.6,5.3,7c0.3,0.5,0.1,1.7-0.3,2.2  c-1.7,1.9-3.7,3.5-5.4,5.4c-0.5,0.5-0.6,1.6-0.4,2.3c0.4,1.9,1.2,3.7,1.6,5.6c0.3,1.3,0.8,1.7,2,1.8c2.2,0.2,4.3,0.6,6.5,0.9  c1.3,0.2,2,0.7,2,2.1c-0.1,2.8,0,5.7,0,8.5c0,1.5-0.6,2.2-2,2.4c-2,0.2-4,0.6-6,0.6c-1.4,0.1-1.9,0.6-2.6,1.9  c-2.1,4.3-1.6,7.5,2.3,10.7c3.6,2.9,3.3,3.3,0.5,6.9c-0.8,1.1-1.6,2.2-2.5,3.2c-2.2,2.7-2.2,2.7-5.1,1c-1.6-1-3.2-2-4.8-2.8  c-0.7-0.3-1.9-0.4-2.5,0c-4.5,2.6-4.4,2.6-3.4,7.7c1.1,5.5,1.1,5.5-4.2,7.1c-1,0.3-2,0.6-3,0.9c-3.6,1-3.6,1-5.2-2.4  c-0.4-0.9-0.9-1.9-1.3-2.9C54.5,88,54.2,87,53.7,85.9z M49.8,38.9c-0.5-0.7-0.9-1.2-1.3-1.6c-3.1-3.9-7.8-5.2-12.5-3.5  c-8.8,3.3-11.2,14.9-4.4,21.9c5,5.2,10.2,10.1,15.3,15.2c0.9,0.9,1.9,1.7,2.8,2.5c0.4-0.2,0.6-0.3,0.7-0.4  c6.1-6.1,12.4-12.2,18.3-18.5c3.4-3.6,4-8.1,2.4-12.8c-1.6-4.7-4.9-7.6-9.8-8.5c-4.6-0.8-8,1.1-10.7,4.7  C50.5,38.2,50.2,38.4,49.8,38.9z"/><text x="0" y="115" fill="#000000" font-size="5px" font-weight="bold" font-family="'Helvetica Neue', Helvetica, Arial-Unicode, Arial, Sans-serif">Created by CC0hort</text><text x="0" y="120" fill="#000000" font-size="5px" font-weight="bold" font-family="'Helvetica Neue', Helvetica, Arial-Unicode, Arial, Sans-serif">from the Noun Project</text></svg>